<svg width="160" height="25" viewBox="0 0 160 25" fill="none" xmlns="http://www.w3.org/2000/svg">
<g clip-path="url(#clip0_7349_14)">
<path d="M142.36 19.266H153.749V25H136.666V0H153.749V5.73394H142.36V19.266ZM159.443 19.266H153.749V5.73394H159.443V19.266Z" fill="white"/>
<path d="M91.1103 25H85.4165V0H102.499V5.73394H91.1103V11.4679H102.499V17.2018H91.1103V25ZM108.194 11.4679H102.499V5.73394H108.194V11.4679ZM108.194 25H102.499V17.2018H108.194V25Z" fill="white"/>
<path d="M56.9437 17.2018H51.2493V0H56.9437V17.2018ZM62.6381 17.2018V0H68.3325V17.2018H62.6381ZM74.0269 17.2018V0H79.7214V17.2018H74.0269ZM62.6381 25H56.9437V17.2018H62.6381V25ZM74.0269 25H68.3325V17.2018H74.0269V25Z" fill="white"/>
<path d="M45.555 19.266V25H28.4719V0H34.1663V19.266H45.555Z" fill="white"/>
<path d="M130.971 19.266V25H113.888V0H119.583V19.266H130.971Z" fill="white"/>
<path d="M5.6944 25H0V0H17.0832V5.73394H5.6944V11.4679H17.0832V17.2018H5.6944V25ZM22.7776 11.4679H17.0832V5.73394H22.7776V11.4679ZM22.7776 25H17.0832V17.2018H22.7776V25Z" fill="white"/>
</g>
<defs>
<clipPath id="clip0_7349_14">
<rect width="160" height="25" fill="white"/>
</clipPath>
</defs>
</svg>
